<svg xmlns="http://www.w3.org/2000/svg" width="88.043" height="50.849" viewBox="0 0 88.043 50.849"><defs><style>.a{fill:#a77d40;}</style></defs><path class="a" d="M-437.336,236.972a2,2,0,0,1-1.833.85c-6.044-.022-12.088-.011-18.132-.013-1.818,0-2.344-.9-1.441-2.447,1.525-2.622,3.071-5.232,4.563-7.872a1.822,1.822,0,0,0,.152-1.26,9.809,9.809,0,0,0-3.26-4.742,26.788,26.788,0,0,0-11.4-5.532c-10.338-2.528-20.542-2.22-30.506,1.773a20.132,20.132,0,0,0-7.025,4.528,8.966,8.966,0,0,0-2.441,3.979,1.855,1.855,0,0,0,.159,1.26c1.492,2.64,3.038,5.25,4.563,7.872.883,1.518.37,2.44-1.367,2.441q-9.109.006-18.218,0c-1.423,0-1.824-.411-1.824-1.849,0-10.541.043-21.082-.029-31.623a9.159,9.159,0,0,1,3.018-7.018,26.664,26.664,0,0,1,9.2-5.373,75.279,75.279,0,0,1,18.013-4.152,115.066,115.066,0,0,1,19.811-.658c8.954.475,17.782,1.686,26.191,4.985a40.117,40.117,0,0,1,5.966,3c2.815,1.693,5.044,3.949,5.839,7.3Zm-2.659-1.776V208.339L-455.658,235.2Zm-67.03,0L-522.7,208.33v26.864Zm59.314-18.747c1.154-1.981,2.272-3.868,3.342-5.781a1.009,1.009,0,0,0-.087-.869,24.287,24.287,0,0,0-2.165-2.951c-.668-.726-1.6-1.2-2.317-1.894a1.783,1.783,0,0,1-.532-1.314,1.49,1.49,0,0,1,.925-.954,1.771,1.771,0,0,1,1.25.33,15.149,15.149,0,0,1,4.708,4.639c.747-1.274,1.379-2.5,2.153-3.625a2.023,2.023,0,0,0,.1-2.39,14.288,14.288,0,0,0-2.184-2.824,22.392,22.392,0,0,0-7.138-4.144l-6.441,14.042C-452.623,210.567-449.541,212.744-447.71,216.447ZM-492.7,198.542c-5.269.521-12.833,2.413-14.2,3.3l6.191,13.485,9.723-2.9-.691-5.534c-.244.028-.412.032-.574.069-2.259.508-4.518,1.014-6.774,1.534-.908.21-1.579-.1-1.77-.857a1.267,1.267,0,0,1,1.033-1.6c1.379-.375,2.764-.732,4.157-1.051,1.188-.272,2.39-.478,3.619-.72Zm1.552-8.565.717,5.7a99.754,99.754,0,0,1,18.192-.015l.7-5.689A115.964,115.964,0,0,0-491.151,189.977Zm-16.88,9.4a71.781,71.781,0,0,1,15.018-3.431l-.711-5.72a78.734,78.734,0,0,0-16.881,3.542Zm55.954-5.615a79.294,79.294,0,0,0-16.888-3.543c-.24,1.943-.469,3.8-.706,5.73a70.775,70.775,0,0,1,15.019,3.425Zm-37.358,10.11c2.787-.124,5.442-.334,8.1-.334,2.677,0,5.353.209,8.092.33l.689-5.631a93.614,93.614,0,0,0-17.576.02Zm15.164,8.358c.235-1.931.461-3.784.693-5.7a69.236,69.236,0,0,0-15.539.021c.247,1.955.48,3.806.718,5.692A58.055,58.055,0,0,1-474.271,212.228Zm18.536-10.486a65.381,65.381,0,0,0-14.245-3.223l-.687,5.54,12.338,3.319Zm-53.675.82a51.1,51.1,0,0,0-4.732,2.763,23.528,23.528,0,0,0-3.448,3.292,2.246,2.246,0,0,0-.169,3.139c1.035,1.446,1.838,3.059,2.793,4.688,1.827-3.735,4.967-5.883,8.371-7.751Zm-3.624-7.9A24.137,24.137,0,0,0-520.407,199a6.721,6.721,0,0,0-2.252,3.567,1.163,1.163,0,0,0,.035.734c.806,1.439,1.648,2.858,2.527,4.365,2.367-3.639,5.907-5.6,9.656-7.343Zm41.341,17.766,9.723,2.891,2.449-5.347a48.486,48.486,0,0,0-11.489-3.094ZM-505.5,211.09a18.837,18.837,0,0,0-4.977,3.438,8.478,8.478,0,0,0-2.4,3.8c-.118.433-.327.994-.158,1.327.726,1.433,1.577,2.8,2.453,4.318,1.762-3.411,4.549-5.518,7.638-7.332Zm53.4,12.876c.8-1.366,1.536-2.558,2.192-3.793a1.98,1.98,0,0,0,.2-1.275c-.976-4.02-4.172-5.918-7.461-7.857l-2.579,5.618C-456.613,218.456-453.861,220.594-452.1,223.967Z" transform="translate(525.378 -186.973)"/></svg>