<svg xmlns="http://www.w3.org/2000/svg" width="51.614" height="55.461" viewBox="0 0 51.614 55.461"><defs><style>.a{fill:#a77d40;}</style></defs><path class="a" d="M-452.289,289.975a4.677,4.677,0,0,1-2.7-1.463,4.194,4.194,0,0,1-.467-4.932c.043-.077.085-.155.152-.278-2.14-.357-3.466-1.505-3.6-3.723a3.7,3.7,0,0,1,2.276-3.558,3.225,3.225,0,0,1,3.865.942,8.709,8.709,0,0,1,.63-.8c1.459-1.476,2.941-2.931,4.388-4.419a1.686,1.686,0,0,0,.422-.883c.384-2.677.7-5.364,1.1-8.039a7.432,7.432,0,0,1,7.228-6.261,1.863,1.863,0,0,1,1.983,1.9,15.42,15.42,0,0,0,.17,2.851,3.789,3.789,0,0,0,4.259,2.859,3.918,3.918,0,0,0,3.358-3.856c.02-.595,0-1.191.006-1.787a1.856,1.856,0,0,1,2.074-1.961,7.523,7.523,0,0,1,7.248,6.881c.3,2.543.657,5.079,1,7.616a.968.968,0,0,0,.24.521q2.593,2.614,5.209,5.206a.361.361,0,0,0,.095.05,3.268,3.268,0,0,1,4.077-.686,3.743,3.743,0,0,1,1.92,3.962,3.785,3.785,0,0,1-3.04,3.066c-.159.03-.317.062-.519.1.115.223.228.42.323.626a4.24,4.24,0,0,1-3.042,5.973c-.1.021-.206.06-.308.091Zm11.717-8.538h14.924c-.241-.966-.473-1.887-.7-2.809a15.106,15.106,0,0,1-.792-5.425q.681-5.693,1.353-11.387c.122-1.033.237-2.067.364-3.169l-1.994-.34c0,.685,0,1.259,0,1.832a5.751,5.751,0,0,1-2.258,4.7,5.684,5.684,0,0,1-8.289-1.556,6.311,6.311,0,0,1-.844-3.307c.007-.533,0-1.067,0-1.684l-2,.379c.079.685.147,1.275.216,1.865.417,3.528.79,7.061,1.267,10.58a14.939,14.939,0,0,1-.353,6.738C-440.045,279.007-440.269,280.212-440.572,281.437Zm5.515,6.733h.628q9.8,0,19.6,0c.234,0,.469-.006.7-.029a2.418,2.418,0,0,0,2.147-2.217,2.456,2.456,0,0,0-2.609-2.657q-10.042-.01-20.083,0c-.121,0-.241.023-.381.037Zm11.327-28.457c-.137,1.169-.283,2.252-.386,3.339a9.839,9.839,0,0,0-.114,2.409c.324,2.046.793,4.069,1.183,6.1a5.375,5.375,0,0,0,1.494,2.88q3.375,3.366,6.745,6.735a.787.787,0,0,0,.44.271c1.227.008,2.458.042,3.679-.049a1.909,1.909,0,0,0,1.6-1.962,1.926,1.926,0,0,0-1.608-1.9,1.082,1.082,0,0,0-1.369.888c-.076.439-.2.8-.666.951-.5.157-.818-.131-1.133-.447-2.066-2.07-4.147-4.125-6.19-6.217a2.24,2.24,0,0,1-.573-1.166c-.4-2.73-.734-5.469-1.115-8.2A5.519,5.519,0,0,0-423.73,259.713Zm-18.756-.015a5.056,5.056,0,0,0-1.872,3.079c-.443,2.885-.805,5.783-1.225,8.671a2.019,2.019,0,0,1-.4,1.077q-3.233,3.311-6.545,6.544a1.358,1.358,0,0,1-.962.284c-.417-.034-.581-.408-.648-.82a1.072,1.072,0,0,0-1.488-.947,2.214,2.214,0,0,0-.307.1,1.964,1.964,0,0,0-1.168,2.058,1.861,1.861,0,0,0,1.709,1.68c1.151.063,2.308.047,3.462.03a.919.919,0,0,0,.538-.295q3.36-3.338,6.705-6.691a5.385,5.385,0,0,0,1.519-2.924c.219-1.187.48-2.366.713-3.55a14.084,14.084,0,0,0,.536-3.024C-441.973,263.252-442.275,261.539-442.486,259.7Zm-3.052,23.577c-2.185,0-4.314-.045-6.44.017a2.376,2.376,0,0,0-2.268,2.439,2.425,2.425,0,0,0,2.61,2.434c4.764.013,9.527.005,14.291,0a3.677,3.677,0,0,0,.438-.051l.033-.179c-.233-.072-.462-.161-.7-.214-1.846-.412-3.695-.813-5.541-1.224a2.805,2.805,0,0,1-2.386-2.743C-445.513,283.614-445.523,283.473-445.538,283.275Zm4.32-12.151a.264.264,0,0,0-.041.087c-.035.139-.07.279-.093.421a7.605,7.605,0,0,1-2.307,4.356c-1.681,1.632-3.32,3.308-4.976,4.966-.133.133-.255.277-.388.423.07.043.1.076.127.077,2.055.007,4.11.018,6.164,0,.134,0,.341-.23.385-.389.247-.883.421-1.788.682-2.667A12.677,12.677,0,0,0-441.218,271.124Zm16.227-.052-.068.009c-.034.243-.07.486-.1.73a10.959,10.959,0,0,0,.075,4.506c.435,1.524.8,3.069,1.161,4.613.095.408.244.556.675.55,1.841-.024,3.682-.009,5.524-.012.167,0,.334-.023.587-.042-.2-.215-.334-.358-.47-.495q-2.564-2.567-5.131-5.131a7.078,7.078,0,0,1-1.993-3.528C-424.823,271.873-424.906,271.473-424.991,271.073ZM-436.919,283.3H-443.7c-.045.925.211,1.271,1.052,1.46q.923.208,1.847.412l3.879.85Z" transform="translate(458.908 -234.514)"/><path class="a" d="M-316.711,108.205a6.909,6.909,0,0,1-2.374,6.2,6.376,6.376,0,0,1-4.233,1.537,6.5,6.5,0,0,1-5.089-2.348,7.058,7.058,0,0,1-1.559-5.382c-.344,0-.611,0-.877,0a.942.942,0,0,1-1.057-1.025,8.486,8.486,0,0,1,3.647-7.712,2.275,2.275,0,0,0,1.236-2.038,3.591,3.591,0,0,1,3.772-3.4,3.641,3.641,0,0,1,3.625,3.631,1.686,1.686,0,0,0,1,1.652,8.624,8.624,0,0,1,3.834,8.051.885.885,0,0,1-1,.9C-316.067,108.26-316.35,108.231-316.711,108.205Zm-11.6-.149a16.125,16.125,0,0,0,.445,2.851,4.511,4.511,0,0,0,4.351,3.219,4.622,4.622,0,0,0,4.33-2.354,7.045,7.045,0,0,0,.69-4.088c0-.12-.165-.253-.279-.35-.52-.442-1.077-.845-1.564-1.321-.289-.282-.486-.255-.835-.119-1.354.53-2.716,1.05-4.1,1.484C-326.213,107.671-327.2,107.814-328.31,108.056Zm11.729-1.718a6.531,6.531,0,0,0-3.226-5.652,6.422,6.422,0,0,0-7.289.143,6.5,6.5,0,0,0-3,5.572c1-.14,1.932-.237,2.848-.4a19.893,19.893,0,0,0,6.14-2.151c.672-.373,1.012-.277,1.5.312a9.818,9.818,0,0,0,.761.841A4.975,4.975,0,0,0-316.581,106.337Zm-8.7-8.381h3.892a1.8,1.8,0,0,0-.873-1.792,1.854,1.854,0,0,0-2.094-.032A1.813,1.813,0,0,0-325.285,97.956Z" transform="translate(349.135 -94.036)"/></svg>