<svg xmlns="http://www.w3.org/2000/svg" width="49.369" height="50.031" viewBox="0 0 49.369 50.031"><defs><style>.a{fill:#a77d40;}</style></defs><path class="a" d="M-550.8,155.961a1.772,1.772,0,0,1-1.054-2.64l10.829-29.325a1.735,1.735,0,0,1,1.973-1.377q1.15,0,2.3-.01a.782.782,0,0,0,.158-.056v-.54q0-6.74,0-13.481a2.507,2.507,0,0,1,3.213-2.494,2.459,2.459,0,0,1,1.789,2.408c.016,1.709.005,3.419.005,5.129q0,4.2,0,8.4v.609h1.643c.01-.206.028-.41.029-.614q0-6.643,0-13.286a2.535,2.535,0,0,1,2.049-2.706,2.494,2.494,0,0,1,2.912,1.976,5.221,5.221,0,0,1,.062.875q.006,6.57,0,13.139v.615h1.673v-.558q0-6.716,0-13.432a2.5,2.5,0,0,1,2.269-2.65,2.509,2.509,0,0,1,2.734,2.537c.017,1.986,0,3.973,0,5.959q0,3.785,0,7.571v.609h1.477c.343,0,.685,0,1.028,0a1.712,1.712,0,0,1,1.909,1.331q1.673,4.529,3.342,9.059,3.751,10.156,7.5,20.311a1.775,1.775,0,0,1-1.053,2.641Zm.386-1.7h46.033c-.068-.19-.121-.342-.177-.492q-3.126-8.464-6.251-16.928-2.23-6.039-4.464-12.077c-.066-.177-.217-.452-.338-.457-.854-.04-1.712-.021-2.591-.021,0,1.948.005,3.819,0,5.69a1.677,1.677,0,0,1-1.757,1.8c-.456.014-.914.007-1.37,0a1.682,1.682,0,0,1-1.88-1.866c0-1.693,0-3.387,0-5.08v-.524h-1.648c-.009.185-.023.344-.023.5,0,1.71.007,3.419,0,5.129a1.686,1.686,0,0,1-1.822,1.837c-.424.008-.849,0-1.273,0a1.717,1.717,0,0,1-1.927-1.93c0-1.677,0-3.354,0-5.031,0-.171-.016-.342-.024-.5h-1.648v.561c0,1.71.007,3.419,0,5.129a1.644,1.644,0,0,1-1.726,1.77c-.489.016-.979.012-1.468,0a1.688,1.688,0,0,1-1.811-1.846c0-1.693,0-3.387,0-5.08v-.571c-.783,0-1.514.026-2.243-.01a.6.6,0,0,0-.7.481q-4.333,11.788-8.691,23.567C-548.948,150.288-549.67,152.255-550.409,154.265Zm23.83-24.183c.01-.2.023-.343.023-.488q0-10.42,0-20.841a3.087,3.087,0,0,0-.009-.341.838.838,0,0,0-.82-.809.83.83,0,0,0-.834.791,4.35,4.35,0,0,0-.012.487q0,10.3,0,20.6v.6Zm-6.671,0v-.523q0-10.4,0-20.8c0-.114,0-.228-.005-.342a.824.824,0,0,0-.807-.815.84.84,0,0,0-.841.735,3.149,3.149,0,0,0-.016.487q0,10.349,0,20.7v.555Zm13.384.012v-.53q0-10.4,0-20.8a1.926,1.926,0,0,0-.078-.622.748.748,0,0,0-.838-.529.773.773,0,0,0-.739.72,3.367,3.367,0,0,0-.012.439q0,10.4,0,20.8v.522Z" transform="translate(552.079 -105.929)"/><path class="a" d="M-401.977,342.362a5.842,5.842,0,0,1,5.871,5.787,5.846,5.846,0,0,1-5.843,5.879,5.839,5.839,0,0,1-5.871-5.787A5.845,5.845,0,0,1-401.977,342.362Zm2.973,2.068c-.184-.121-.375-.243-.563-.371a.376.376,0,0,0-.561.026.506.506,0,0,1-.846-.362c-.008-.069-.017-.137-.028-.221a4.736,4.736,0,0,0-4.689,1.706,4.6,4.6,0,0,0-.953,3.964.581.581,0,0,1,.637.3c.168.342-.055.565-.282.81l.549.873Zm-3.842,8.47a4.712,4.712,0,0,0,4.529-1.619,4.633,4.633,0,0,0,1.039-4.063.575.575,0,0,1-.656-.3c-.157-.341.068-.564.3-.8l-.543-.861-6.733,6.718c.2.127.416.265.632.406a.291.291,0,0,0,.431-.035.466.466,0,0,1,.7-.045A2.7,2.7,0,0,1-402.846,352.9Z" transform="translate(426.647 -311.504)"/><path class="a" d="M-244.4,426.065l-.816-2.237c-.05-.137-.114-.271-.152-.412a.842.842,0,0,1,.5-1.041.8.8,0,0,1,1.052.459c.269.645.5,1.3.743,1.96.22.595.449,1.187.647,1.789a.813.813,0,0,1-.764,1.134c-1.191.028-2.382.023-3.573,0a.8.8,0,0,1-.81-.857.8.8,0,0,1,.867-.794C-245.965,426.056-245.217,426.065-244.4,426.065Z" transform="translate(287.321 -381.028)"/><path class="a" d="M-389.376,379.061c-.11-.086-.319-.173-.385-.322a.624.624,0,0,1,.039-.537,6.863,6.863,0,0,1,.847-.86.467.467,0,0,1,.629,0,.434.434,0,0,1,.164.6,11.957,11.957,0,0,1-1.037,1.049C-389.158,379.026-389.235,379.024-389.376,379.061Z" transform="translate(410.982 -341.813)"/><path class="a" d="M-372.062,361.789c-.12-.1-.322-.183-.379-.326a.64.64,0,0,1,.037-.54,6.1,6.1,0,0,1,.872-.877.467.467,0,0,1,.651.053.445.445,0,0,1,.094.617,11.344,11.344,0,0,1-.953.967C-371.8,361.74-371.913,361.742-372.062,361.789Z" transform="translate(395.922 -326.786)"/><path class="a" d="M-347.7,383.773c0,.01,0,.021,0,.031-.014.3-.945,1.265-1.248,1.239a.673.673,0,0,1-.476-.26.593.593,0,0,1,.018-.539,5.568,5.568,0,0,1,.9-.894.6.6,0,0,1,.515-.016c.144.066.228.262.339.4Z" transform="translate(375.917 -347.085)"/><path class="a" d="M-364.966,401.039c-.01.445-.943,1.4-1.266,1.367a.646.646,0,0,1-.464-.277.657.657,0,0,1,.06-.564,4.157,4.157,0,0,1,.812-.808.687.687,0,0,1,.566-.06C-365.11,400.752-365.023,400.967-364.966,401.039Z" transform="translate(390.924 -362.196)"/></svg>