<svg xmlns="http://www.w3.org/2000/svg" width="45.069" height="52.252" viewBox="0 0 45.069 52.252"><defs><style>.a{fill:#a77d40;}</style></defs><path class="a" d="M-517.075,146.23c-.762-.428-1.087-.945-.833-1.528a2.058,2.058,0,0,1,.75-.846c2.077-1.332,4.181-2.623,6.262-3.949a1.887,1.887,0,0,0,.629-.691c.683-1.311,1.314-2.648,2-3.957a.858.858,0,0,0-.03-.931c-.769-1.381-1.5-2.781-2.273-4.161a2.8,2.8,0,0,1-.1-2.727c.247-.521.477-1.05.693-1.527-2.2-.963-4.39-1.921-6.58-2.872a.653.653,0,0,0-.389-.048c-1.747.444-3.492.9-5.236,1.355-.026.007-.043.046-.1.111.92.078,1.805.157,2.691.226a2.407,2.407,0,0,1,2.245,1.646q1.986,5.43,3.927,10.876a2.409,2.409,0,0,1-1.415,3.18,2.443,2.443,0,0,1-3.149-1.58q-1.615-4.427-3.185-8.869a.736.736,0,0,0-.779-.6c-.663-.012-1.325-.1-1.987-.148-.6-.048-.933-.341-.91-.815s.377-.747.983-.71c.986.06,1.971.146,2.956.22a.982.982,0,0,1,.893.775q1.66,4.654,3.352,9.3a3.173,3.173,0,0,0,.288.649.8.8,0,0,0,.982.341.791.791,0,0,0,.59-.853,2.2,2.2,0,0,0-.139-.591c-1.253-3.483-2.516-6.963-3.761-10.449a1.144,1.144,0,0,0-1.12-.851c-2.43-.175-4.857-.382-7.286-.578-.687-.056-1.08-.568-.791-1.08a1.03,1.03,0,0,1,.575-.445q5.133-1.349,10.282-2.642a1.668,1.668,0,0,1,.976.136c1.862.795,3.708,1.623,5.563,2.436a2.337,2.337,0,0,0,.579.185.775.775,0,0,0,.9-.518.813.813,0,0,0-.261-1.008,2.654,2.654,0,0,0-.536-.291c-2.006-.889-4.018-1.766-6.019-2.665a1.9,1.9,0,0,0-1.331-.1q-5.482,1.429-10.972,2.828c-.7.18-.867.114-1.279-.493-.449-.661-.88-1.335-1.35-1.981a.7.7,0,0,0-.513-.28c-1.693.178-3.382.39-5.133.6.078.156.124.272.189.377,1.179,1.89,2.367,3.774,3.537,5.67a1.39,1.39,0,0,0,1.208.706c1.241.072,2.48.189,3.719.292.547.045.888.376.857.817s-.388.735-.946.706c-.643-.033-1.285-.094-1.974-.146-.3,1.2-.6,2.361-.878,3.529-.409,1.716-.778,3.443-1.209,5.154-.506,2.007-1.054,4-1.6,6a.778.778,0,0,1-.935.651.76.76,0,0,1-.535-1c.289-1.24.6-2.473.917-3.745a2.742,2.742,0,0,1-2.71-2.2c-1.02-2.863-2.062-5.72-3.192-8.541a6.044,6.044,0,0,1-.071-3.544c.344-1.836.67-3.676.993-5.517a1.041,1.041,0,0,0-.039-.535A2.423,2.423,0,0,1-537,115.505c3.281-.389,6.559-.8,9.84-1.189a.637.637,0,0,0,.588-.443q1.359-3.1,2.749-6.195a2.44,2.44,0,0,1,3.2-1.579.567.567,0,0,0,.442-.116c2.643-2.458,5.274-4.93,7.917-7.388a.4.4,0,0,0,.072-.569q-.545-1.066-1.069-2.144a1.226,1.226,0,0,1,1.189-1.9q6.673-.007,13.346,0a1.258,1.258,0,0,1,1.422,1.41c0,.085,0,.17,0,.255q0,24.465.008,48.93a1.5,1.5,0,0,1-.963,1.653Zm18.2-1.559V95.552h-12.818c.108.234.188.419.277.6,2.53,5.1,5.045,10.2,7.6,15.287a4.867,4.867,0,0,1,.081,4.493c-1.852,4.009-3.659,8.038-5.5,12.049a1.549,1.549,0,0,0,.055,1.539c.838,1.5,1.637,3.017,2.469,4.518a1.469,1.469,0,0,1,.021,1.5c-.781,1.528-1.52,3.077-2.322,4.594a2.672,2.672,0,0,1-.87.953c-1.712,1.112-3.455,2.178-5.186,3.261-.137.086-.267.182-.484.331Zm-29.41-23.756c3.137-.807,6.23-1.616,9.33-2.4,2.937-.741,2.222-.838,5.061.408,1.956.859,3.9,1.739,5.889,2.625-.017.027.023-.024.049-.081.994-2.179,1.991-4.356,2.975-6.54a2.839,2.839,0,0,0-.092-2.553q-3.012-6.044-6-12.1c-.071-.143-.161-.276-.265-.454-2.626,2.455-5.212,4.87-7.789,7.3a.447.447,0,0,0-.082.39,2.657,2.657,0,0,1-.157,2.076c-.289.633-.559,1.275-.85,1.908-.243.529-.673.726-1.1.524-.4-.191-.518-.617-.294-1.145.271-.641.562-1.274.839-1.913.287-.662.158-1.171-.349-1.4s-.966.01-1.272.672c-.029.062-.057.123-.085.185-.959,2.157-1.932,4.308-2.866,6.476a1.3,1.3,0,0,1-1.158.9c-2.927.331-5.851.7-8.776,1.048-.575.069-1.152.125-1.723.216a.9.9,0,0,0-.792.963.871.871,0,0,0,.92.771,6.089,6.089,0,0,0,.712-.058c1-.119,1.995-.243,2.992-.363,2.637-.318,5.274-.642,7.913-.946a1.249,1.249,0,0,0,1.142-.857c.275-.712.6-1.406.918-2.1a.772.772,0,0,1,1.065-.5.762.762,0,0,1,.348,1.079c-.336.8-.683,1.592-1.048,2.378a2.454,2.454,0,0,1-2.055,1.475c-.778.093-1.555.192-2.332.289-.664.083-1.328.168-2.056.261Zm-9.4.357-.12.015c-.287,1.6-.547,3.2-.875,4.79a3.453,3.453,0,0,0,.184,2.025c1.1,2.869,2.151,5.756,3.224,8.635.083.222.135.509.3.633a1.734,1.734,0,0,0,.885.349.554.554,0,0,0,.561-.606,2.489,2.489,0,0,0-.05-.881c-1.072-2.933-2.175-5.856-3.248-8.789a2.114,2.114,0,0,1-.1-.982c.128-.907.322-1.8.469-2.71a.948.948,0,0,0-.058-.579C-536.875,122.528-537.286,121.9-537.682,121.273Zm2.589,4.134-.141.031a4.147,4.147,0,0,0-.1,1.543c.8,2.322,1.686,4.613,2.593,7.047l1.354-5.4a1.351,1.351,0,0,0-.227-.05,2.706,2.706,0,0,1-2.43-1.5C-534.373,126.51-534.743,125.964-535.093,125.407Z" transform="translate(542.362 -93.978)"/><path class="a" d="M-556.6,197.338a3.964,3.964,0,0,1,3.949-3.96,3.981,3.981,0,0,1,3.955,3.963,4,4,0,0,1-3.932,3.941A3.974,3.974,0,0,1-556.6,197.338Zm1.535-.019a2.424,2.424,0,0,0,2.38,2.432,2.44,2.44,0,0,0,2.455-2.415,2.428,2.428,0,0,0-2.438-2.427A2.418,2.418,0,0,0-555.066,197.319Z" transform="translate(556.6 -180.676)"/></svg>