<svg xmlns="http://www.w3.org/2000/svg" width="73.388" height="52.744" viewBox="0 0 73.388 52.744"><defs><style>.a{fill:#a77d40;}</style></defs><path class="a" d="M-626.995,188.56a9.4,9.4,0,0,1,3.3-5.126c1.756-1.618,3.448-3.305,5.134-5a1.634,1.634,0,0,0,.435-1.036c.031-3.582.018-7.165.02-10.748a2.334,2.334,0,0,1,2.651-2.627c.569,0,1.137,0,1.8,0,0-.745-.009-1.428,0-2.112a1.84,1.84,0,0,1,2.009-2c2.126-.011,4.251-.007,6.377,0,.829,0,1.332.421,1.33,1.078s-.5,1.064-1.335,1.067c-1.791.006-3.582,0-5.374,0h-.815v19.437c.148.021.306.035.461.066a2.854,2.854,0,0,1,2.1,4.062c-.482,1.055-1.041,2.074-1.618,3.214h.8q8.1,0,16.193,0c1.563,0,2.149-.588,2.15-2.174q0-9.709,0-19.417a4.8,4.8,0,0,0-5.176-5.186c-1.314,0-2.627.006-3.941,0-.8-.006-1.26-.393-1.276-1.04-.017-.681.458-1.1,1.288-1.1,1.5-.008,3.011-.042,4.514.008a6.95,6.95,0,0,1,5.649,3.154c.17-.2.318-.373.462-.548a6.78,6.78,0,0,1,5.423-2.611c5.135-.019,10.27-.009,15.4,0a1.865,1.865,0,0,1,2.082,2.077c.007.644,0,1.287,0,2.04.65,0,1.261,0,1.872,0a2.32,2.32,0,0,1,2.578,2.559c0,3.607-.011,7.213.021,10.819a1.629,1.629,0,0,0,.438,1.034c2.013,2.006,4.064,3.974,6.1,5.959a6.754,6.754,0,0,1,.924,9.255c-1.02,1.5-2.023,3.012-3.077,4.488a4.021,4.021,0,0,0-.793,2.61c.032.735.006,1.472.006,2.275.313.015.567.022.82.039a1.951,1.951,0,0,1,1.971,1.963c.045,1.862.043,3.726,0,5.588a1.953,1.953,0,0,1-2.071,2c-1.027.019-2.054.014-3.081,0-.773-.009-1.254-.437-1.253-1.078s.481-1.056,1.259-1.065c.974-.011,1.947,0,2.965,0v-5.224h-10.676v5.224c.959,0,1.93,0,2.9,0,.9,0,1.4.4,1.393,1.076s-.509,1.067-1.4,1.071c-.979,0-1.958.009-2.938,0a1.953,1.953,0,0,1-2.155-2.055q-.05-2.722,0-5.445c.024-1.316.656-1.868,2.264-2.116.376-2.486-.381-4.864-.7-7.362h-.667c-4.92,0-9.84.008-14.76-.012a.885.885,0,0,0-1,.661,2.27,2.27,0,0,1-2.375,1.585c-1.266-.013-2.532-.015-3.8,0a2.3,2.3,0,0,1-2.419-1.627.8.8,0,0,0-.885-.619c-4.991.021-9.983.012-14.975.014-.188,0-.376.023-.5.031-.246,1.25-.574,2.446-.693,3.663s-.026,2.426-.026,3.684c.161.022.393.042.619.088a1.83,1.83,0,0,1,1.588,1.771c.046,1.957.052,3.917,0,5.873a1.869,1.869,0,0,1-1.967,1.86c-1.528.027-3.057.019-4.585,0a1.1,1.1,0,0,1-1.189-1.075,1.088,1.088,0,0,1,1.192-1.063c1.218-.015,2.436-.005,3.654-.006h.737v-5.2h-10.694v5.2c.578,0,1.143-.008,1.708,0,.788.015,1.243.416,1.239,1.075s-.466,1.055-1.253,1.069c-.6.011-1.194.012-1.791,0a1.956,1.956,0,0,1-2.09-1.986q-.065-2.793,0-5.588a1.963,1.963,0,0,1,2.024-1.986c.232-.013.464-.022.726-.034.089-1.981.29-3.9-1.17-5.53a27.6,27.6,0,0,1-1.755-2.526,11.686,11.686,0,0,1-2.3-4.55Zm56.92.276c-.334-.645-.6-1.15-.857-1.658-.271-.531-.564-1.052-.8-1.6a2.849,2.849,0,0,1,1.691-3.9c.288-.1.592-.144.882-.213V162.058h-.771q-7.091,0-14.183,0a4.781,4.781,0,0,0-5.111,5.1q-.016,9.778,0,19.556c0,1.526.6,2.117,2.132,2.117q8.13,0,16.26,0Zm7.575-7.822c0,2.1-.008,4.006.013,5.908a.957.957,0,0,0,.3.534c.551.6,1.134,1.163,1.682,1.762a1.079,1.079,0,0,1,.019,1.595,1.051,1.051,0,0,1-1.536-.088c-.141-.129-.268-.272-.4-.41q-2.956-3.072-5.911-6.145c-.345-.359-.71-.725-1.223-.329-.464.358-.27.8-.049,1.222,1.068,2.053,2.107,4.12,3.2,6.158a2.337,2.337,0,0,1-.185,2.787,3.979,3.979,0,0,0-.636,3.267c.241,1.354.386,2.726.534,4.095a15.609,15.609,0,0,1,.01,1.65h5.646c0-.776.026-1.511-.005-2.244a5.991,5.991,0,0,1,1.193-3.885c1.131-1.568,2.21-3.173,3.273-4.788a4.466,4.466,0,0,0-.408-5.679C-558.729,184.626-560.559,182.91-562.5,181.014Zm-51.474,22.022c.011-.242.023-.407.026-.571a19.047,19.047,0,0,1,.56-5.389,3.38,3.38,0,0,0-.663-3.11,2.28,2.28,0,0,1-.168-2.724c.908-1.678,1.765-3.383,2.643-5.077.208-.4.415-.806.624-1.208s.308-.832-.141-1.145c-.419-.292-.764-.086-1.067.24-.162.175-.33.345-.5.517q-2.932,3.045-5.867,6.087a1.058,1.058,0,0,1-1.636.124,1,1,0,0,1,.1-1.576c1.875-1.332,2.2-3.167,1.965-5.265a20.807,20.807,0,0,1-.014-2.148c0-.2-.026-.4-.042-.624a.91.91,0,0,0-.182.089c-1.664,1.611-3.336,3.215-4.987,4.84a4.574,4.574,0,0,0-.612,6.172c1,1.484,1.974,2.99,3.041,4.425a6.411,6.411,0,0,1,1.323,4.348c-.037.656-.006,1.315-.006,2ZM-590.3,189.8a4.7,4.7,0,0,1-3.654,1.2c-5.587-.028-11.175,0-16.763-.031a1.248,1.248,0,0,0-1.364.81c-.481,1.06-.091,1.719,1.1,1.719,5.134,0,10.268.019,15.4-.012a2.644,2.644,0,0,1,2.9,1.812.816.816,0,0,0,.613.412c1.169.04,2.34.036,3.509,0a.757.757,0,0,0,.586-.344c.507-1.5,1.6-1.9,3.072-1.887,5.134.042,10.268.018,15.4.011.25,0,.62,0,.725-.148.225-.316.522-.815.413-1.086-.228-.562-.3-1.305-1.312-1.3-5.683.054-11.366.011-17.049.037A4.587,4.587,0,0,1-590.3,189.8Zm-25.612-23.589v18.452c.6-.563,1.247-1.093,1.795-1.71a1.845,1.845,0,0,0,.442-1.113c.029-4.967.02-9.934.018-14.9,0-.232-.02-.464-.033-.728ZM-564.7,184.6V166.237h-2.25c0,5.36,0,10.659.006,15.959a.683.683,0,0,0,.148.451C-566.1,183.321-565.378,183.974-564.7,184.6Z" transform="translate(626.995 -159.892)"/><path class="a" d="M-517.819,194.379c-1.624,0-3.248,0-4.871,0-.819,0-1.266-.365-1.29-1.015-.025-.675.451-1.124,1.274-1.127q4.907-.017,9.814,0c.834,0,1.309.435,1.293,1.111-.015.65-.469,1.028-1.277,1.032C-514.524,194.384-516.171,194.379-517.819,194.379Z" transform="translate(543.704 -186.036)"/><path class="a" d="M-517.749,278.794c1.624,0,3.248-.005,4.871,0,.811,0,1.263.379,1.277,1.03.015.676-.459,1.109-1.294,1.112q-4.907.016-9.814,0c-.822,0-1.3-.455-1.274-1.129.025-.652.469-1.01,1.291-1.013C-521.044,278.79-519.4,278.794-517.749,278.794Z" transform="translate(543.706 -256.028)"/><path class="a" d="M-517.766,221.157c1.624,0,3.248-.006,4.872,0,.839,0,1.312.417,1.295,1.092-.017.645-.483,1.049-1.278,1.051q-4.907.012-9.814,0c-.828,0-1.307-.431-1.291-1.106.015-.655.461-1.032,1.274-1.036C-521.062,221.15-519.414,221.157-517.766,221.157Z" transform="translate(543.707 -209.425)"/><path class="a" d="M-517.838,252.022c-1.6,0-3.2,0-4.8,0-.874,0-1.329-.365-1.345-1.04-.016-.695.476-1.1,1.363-1.106q4.836-.007,9.671,0c.853,0,1.332.387,1.349,1.051.018.69-.472,1.091-1.367,1.094C-514.59,252.027-516.214,252.022-517.838,252.022Z" transform="translate(543.706 -232.644)"/><path class="a" d="M-405.229,252.021c-1.624,0-3.248.005-4.872,0-.858,0-1.325-.386-1.331-1.056s.467-1.086,1.309-1.088q4.872-.01,9.743,0c.841,0,1.326.4,1.331,1.068s-.458,1.073-1.309,1.077C-401.982,252.027-403.605,252.021-405.229,252.021Z" transform="translate(452.705 -232.643)"/><path class="a" d="M-405.285,194.38c-1.624,0-3.247.005-4.871,0-.808,0-1.261-.383-1.276-1.034-.015-.676.459-1.106,1.294-1.109q4.907-.015,9.814,0c.822,0,1.3.455,1.273,1.128-.027.654-.469,1.011-1.291,1.014C-401.99,194.384-403.637,194.38-405.285,194.38Z" transform="translate(452.704 -186.036)"/><path class="a" d="M-405.215,221.156c1.624,0,3.248-.006,4.872,0,.847,0,1.31.408,1.3,1.09-.014.639-.489,1.051-1.275,1.053q-4.907.012-9.815,0c-.834,0-1.309-.426-1.295-1.1.014-.648.47-1.034,1.275-1.039C-408.51,221.15-406.862,221.156-405.215,221.156Z" transform="translate(452.705 -209.425)"/><path class="a" d="M-405.214,278.8c1.624,0,3.248,0,4.871,0,.827,0,1.266.356,1.292,1.012.027.674-.451,1.127-1.272,1.13q-4.907.017-9.814,0c-.836,0-1.308-.434-1.294-1.11s.471-1.031,1.346-1.033C-408.461,278.792-406.838,278.8-405.214,278.8Z" transform="translate(452.704 -256.029)"/></svg>